<?xml version="1.0" standalone="no"?>
<!DOCTYPE svg PUBLIC "-//W3C//DTD SVG 20010904//EN"
 "http://www.w3.org/TR/2001/REC-SVG-20010904/DTD/svg10.dtd">
<svg version="1.0" xmlns="http://www.w3.org/2000/svg"
 width="600.000000pt" height="600.000000pt" viewBox="0 0 600.000000 600.000000"
 preserveAspectRatio="xMidYMid meet">
<metadata>
Created by potrace 1.11, written by Peter Selinger 2001-2013
</metadata>
<g transform="translate(0.000000,600.000000) scale(0.100000,-0.100000)"
fill="#000000" stroke="none">
<path d="M5836 5973 c-25 -50 -416 -872 -523 -1103 -453 -973 -583 -1393 -583
-1885 0 -284 37 -501 137 -809 121 -373 265 -701 818 -1863 l149 -313 58 0
c55 0 58 1 58 25 0 13 -91 215 -201 447 -503 1056 -656 1407 -772 1763 -224
692 -183 1118 198 2015 104 245 268 599 564 1221 127 268 231 496 231 508 0
19 -5 21 -60 21 -55 0 -61 -2 -74 -27z"/>
<path d="M1498 4235 c-179 -45 -340 -170 -465 -361 -111 -170 -184 -395 -214
-653 -15 -138 -7 -465 16 -591 55 -307 157 -521 330 -695 110 -111 202 -168
325 -201 86 -23 306 -23 404 0 384 90 795 481 921 876 10 30 24 69 31 85 24
54 37 280 24 412 -27 277 -165 547 -400 783 -158 158 -326 266 -510 325 -76
25 -103 28 -245 31 -115 3 -176 -1 -217 -11z m344 -114 c451 -115 853 -576
918 -1052 20 -148 -20 -339 -109 -524 -196 -401 -616 -716 -961 -717 -235 -2
-456 153 -596 416 -191 359 -227 846 -93 1259 150 466 482 709 841 618z"/>
</g>
</svg>
